<?xml version="1.0" encoding="utf-8"?>
<svg viewBox="167.132 118.699 43.401 56.241" xmlns="http://www.w3.org/2000/svg" xmlns:bx="https://boxy-svg.com">
  <defs>
    <linearGradient id="color-0" bx:pinned="true">
      <title>rosa</title>
      <stop style="stop-color: rgb(165, 25, 135);"/>
    </linearGradient>
    <linearGradient id="color-1" bx:pinned="true">
      <title>azul</title>
      <stop style="stop-color: rgb(0, 122, 204);"/>
    </linearGradient>
  </defs>
  <g transform="matrix(1, 0, 0, 1, 160.914553, 118.821955)">
    <path style="fill:#E9E9E0;" d="M36.985,0H7.963C7.155,0,6.5,0.655,6.5,1.926V55c0,0.345,0.655,1,1.463,1h40.074 c0.808,0,1.463-0.655,1.463-1V12.978c0-0.696-0.093-0.92-0.257-1.085L37.607,0.257C37.442,0.093,37.218,0,36.985,0z"/>
    <polygon style="fill:#D9D7CA;" points="37.5,0.151 37.5,12 49.349,12 &#9;"/>
    <path style="fill: url(#color-0);" d="M48.037,56H7.963C7.155,56,6.5,55.345,6.5,54.537V39h43v15.537C49.5,55.345,48.845,56,48.037,56z"/>
    <g/>
    <g/>
  </g>
  <text style="fill: rgb(235, 235, 227); font-family: Candara; font-size: 5.05836px; font-weight: 700; line-height: 7.28404px; text-anchor: middle; white-space: pre;" transform="matrix(2.284099, 0, 0, 1.976924, -214.011585, -161.140704)" x="176.408" y="167.518">GITHUB</text>
  <g transform="matrix(1.167127, 0, 0, 1.0855, 179.481234, 130.250109)" style=""/>
  <g transform="matrix(1.47059, 0, 0, 1.402071, 177.000003, 131.000002)"/>
  <path d="M 196.232 146.584 C 196.232 147.63 195.659 149.335 194.308 149.335 C 192.954 149.335 192.383 147.63 192.383 146.584 C 192.383 145.539 192.954 143.834 194.308 143.834 C 195.659 143.834 196.232 145.539 196.232 146.584 Z M 184.692 143.834 C 183.341 143.834 182.77 145.539 182.77 146.584 C 182.77 147.63 183.341 149.335 184.692 149.335 C 186.045 149.335 186.616 147.63 186.616 146.584 C 186.616 145.539 186.045 143.834 184.692 143.834 Z M 202 144.063 C 202 145.654 201.835 147.344 201.084 148.805 C 199.1 152.63 193.648 153 189.741 153 C 185.775 153 179.991 152.673 177.933 148.805 C 177.165 147.358 177 145.654 177 144.063 C 177 141.971 177.601 139.996 179.045 138.391 C 178.774 137.603 178.639 136.772 178.639 135.954 C 178.639 134.881 178.892 133.808 179.404 132.832 C 181.777 132.832 183.296 133.82 185.099 135.168 C 186.616 134.824 188.177 134.666 189.741 134.666 C 191.152 134.666 192.582 134.81 193.949 135.125 C 195.736 133.793 197.252 132.832 199.598 132.832 C 200.109 133.807 200.364 134.881 200.364 135.954 C 200.364 136.772 200.227 137.589 199.958 138.362 C 201.4 139.979 202 141.971 202 144.063 Z M 198.634 146.584 C 198.634 144.393 197.239 142.459 194.789 142.459 C 193.798 142.459 192.851 142.631 191.859 142.76 C 191.077 142.876 190.298 142.917 189.5 142.917 C 188.702 142.917 187.923 142.876 187.141 142.76 C 186.165 142.631 185.202 142.459 184.211 142.459 C 181.764 142.459 180.366 144.393 180.366 146.584 C 180.366 150.967 184.573 151.64 188.239 151.64 L 190.764 151.64 C 194.429 151.642 198.634 150.967 198.634 146.584 Z" style="fill: url(#color-1);"/>
</svg>