<?xml version="1.0" encoding="utf-8"?>
<svg viewBox="167.132 118.699 43.401 56.241" xmlns="http://www.w3.org/2000/svg" xmlns:bx="https://boxy-svg.com">
  <defs>
    <linearGradient id="color-0" bx:pinned="true">
      <title>rosa</title>
      <stop style="stop-color: rgb(165, 25, 135);"/>
    </linearGradient>
  </defs>
  <g transform="matrix(1, 0, 0, 1, 160.914553, 118.821955)">
    <path style="fill:#E9E9E0;" d="M36.985,0H7.963C7.155,0,6.5,0.655,6.5,1.926V55c0,0.345,0.655,1,1.463,1h40.074 c0.808,0,1.463-0.655,1.463-1V12.978c0-0.696-0.093-0.92-0.257-1.085L37.607,0.257C37.442,0.093,37.218,0,36.985,0z"/>
    <polygon style="fill:#D9D7CA;" points="37.5,0.151 37.5,12 49.349,12 &#9;"/>
    <path style="fill: url(#color-0);" d="M48.037,56H7.963C7.155,56,6.5,55.345,6.5,54.537V39h43v15.537C49.5,55.345,48.845,56,48.037,56z"/>
    <g/>
    <g/>
  </g>
  <text style="fill: rgb(235, 235, 227); font-family: Candara; font-size: 5.5642px; font-weight: 700; line-height: 7.28404px; text-anchor: middle; white-space: pre;" transform="matrix(2.284099, 0, 0, 1.976924, -213.636691, -160.746096)" x="176.408" y="167.518">REACT</text>
  <g transform="matrix(1.167127, 0, 0, 1.0855, 179.481234, 130.250109)" style=""/>
  <circle cx="189.639" cy="142.683" r="2.5" style="fill:#007acc"/>
  <path d="M 189.639 148.415 C 186.634 148.487 183.636 148.082 180.759 147.215 C 179.429 146.793 178.189 146.129 177.102 145.257 C 176.262 144.653 175.727 143.713 175.639 142.683 C 175.639 141.03 177.455 139.41 180.497 138.35 C 183.451 137.41 186.539 136.955 189.639 137.002 C 192.697 136.959 195.743 137.406 198.661 138.326 C 199.941 138.734 201.139 139.365 202.199 140.192 C 203.025 140.767 203.552 141.68 203.639 142.683 C 203.639 144.401 201.609 146.142 198.339 147.224 C 195.517 148.063 192.582 148.465 189.639 148.415 Z M 189.639 138.198 C 186.673 138.158 183.719 138.591 180.89 139.48 C 178.09 140.457 176.835 141.793 176.835 142.68 C 176.835 143.608 178.184 145.067 181.146 146.08 C 183.899 146.905 186.765 147.29 189.639 147.219 C 192.455 147.269 195.263 146.888 197.964 146.089 C 201.039 145.07 202.439 143.609 202.439 142.683 C 202.337 142.04 201.97 141.47 201.429 141.11 C 200.48 140.377 199.41 139.817 198.268 139.456 C 195.477 138.579 192.564 138.155 189.639 138.198 L 189.639 138.198 Z" style="fill:#007acc"/>
  <path d="M 183.959 155.152 C 183.492 155.162 183.031 155.049 182.623 154.824 C 181.191 153.998 180.695 151.616 181.296 148.451 C 181.958 145.422 183.106 142.52 184.696 139.858 C 186.186 137.187 188.095 134.771 190.349 132.704 C 191.342 131.798 192.487 131.076 193.733 130.571 C 194.644 130.143 195.699 130.143 196.611 130.571 C 198.1 131.429 198.593 134.057 197.898 137.43 C 197.214 140.294 196.096 143.037 194.582 145.563 C 193.143 148.202 191.295 150.596 189.106 152.656 C 188.076 153.596 186.882 154.339 185.583 154.845 C 185.062 155.038 184.513 155.141 183.959 155.152 Z M 185.732 140.452 C 184.216 143.001 183.115 145.775 182.472 148.671 C 181.919 151.586 182.45 153.339 183.222 153.785 C 184.022 154.248 185.964 153.809 188.322 151.749 C 190.412 149.776 192.176 147.484 193.549 144.959 C 195 142.544 196.072 139.922 196.73 137.183 C 197.384 134.008 196.819 132.064 196.017 131.602 C 195.409 131.369 194.731 131.401 194.149 131.691 C 193.04 132.148 192.021 132.797 191.139 133.609 C 188.985 135.589 187.162 137.902 185.739 140.458 L 185.732 140.452 Z" style="fill:#007acc"/>
  <path d="M 195.316 155.165 C 193.961 155.165 192.24 154.345 190.448 152.804 C 188.154 150.717 186.214 148.273 184.701 145.567 C 183.131 142.941 181.992 140.081 181.327 137.096 C 181.038 135.782 180.984 134.428 181.169 133.096 C 181.255 132.095 181.78 131.184 182.603 130.609 C 184.09 129.748 186.613 130.633 189.188 132.919 C 191.328 134.941 193.146 137.279 194.578 139.853 C 196.146 142.417 197.297 145.214 197.988 148.14 C 198.289 149.501 198.335 150.907 198.125 152.286 C 198.023 153.314 197.477 154.248 196.631 154.841 C 196.229 155.063 195.775 155.175 195.316 155.165 Z M 185.736 144.965 C 187.187 147.551 189.041 149.89 191.228 151.894 C 193.477 153.829 195.261 154.245 196.028 153.794 C 196.828 153.329 197.418 151.431 196.81 148.36 C 196.143 145.567 195.039 142.896 193.539 140.449 C 192.172 137.986 190.437 135.746 188.394 133.809 C 185.97 131.657 184.004 131.176 183.203 131.64 C 182.698 132.05 182.388 132.652 182.348 133.302 C 182.189 134.49 182.24 135.696 182.501 136.867 C 183.141 139.722 184.233 142.456 185.737 144.967 L 185.736 144.965 Z" style="fill:#007acc"/>
</svg>